<svg id="visual" viewBox="0 0 900 600" width="900" height="600" xmlns="http://www.w3.org/2000/svg" xmlns:xlink="http://www.w3.org/1999/xlink" version="1.1"><rect x="0" y="0" width="900" height="600" fill="#000b13"></rect><defs><linearGradient id="grad1_0" x1="33.3%" y1="0%" x2="100%" y2="100%"><stop offset="20%" stop-color="#000b13" stop-opacity="1"></stop><stop offset="80%" stop-color="#000b13" stop-opacity="1"></stop></linearGradient></defs><defs><linearGradient id="grad2_0" x1="0%" y1="0%" x2="66.7%" y2="100%"><stop offset="20%" stop-color="#000b13" stop-opacity="1"></stop><stop offset="80%" stop-color="#000b13" stop-opacity="1"></stop></linearGradient></defs><g transform="translate(900, 0)"><path d="M0 162.2C-25.6 165.2 -51.1 168.1 -62.1 149.9C-73.1 131.7 -69.5 92.5 -72.1 72.1C-74.8 51.7 -83.7 50.2 -99.8 41.3C-115.8 32.5 -139 16.2 -162.2 0L0 0Z" fill="#3cfafa"></path></g><g transform="translate(0, 600)"><path d="M0 -162.2C22 -155 44 -147.7 54.7 -132.1C65.5 -116.6 65 -92.8 82 -82C99.1 -71.3 133.6 -73.6 149.9 -62.1C166.2 -50.6 164.2 -25.3 162.2 0L0 0Z" fill="#3cfafa"></path></g></svg>